<?xml version="1.0" encoding="UTF-8"?> <svg xmlns="http://www.w3.org/2000/svg" version="1.1" viewBox="0 0 637.1 254.9"><defs><style> .cls-1 { fill: #fff; } .cls-2 { fill: #333; } .cls-3 { fill: #e44c38; } </style></defs><!-- Generator: Adobe Illustrator 28.6.0, SVG Export Plug-In . SVG Version: 1.2.0 Build 709) --><g><g id="Layer_1"><path class="cls-2" d="M634.9,223.8c-6.5-13.5-43.9-147.9-43.9-147.9-4.6-12.9-7.7-21.6-30.6-21s-36.8,11.4-60.3,12.7-38.4,8.4-61.8,8.9-19.8,3.9-50.3,5-61.4,27.9-57.8,16.3c10.9-35.6-4.7-95.9-11.9-95.9s-4.4,12.4-23.6,33.4c-13.5,14.8-39.9,46.2-106.7,44.4-77.6-2.1-140.9-45.4-126.6-46.5,51.1-3.8-1-26.2-35-5.4s-21.3,41-13.5,43.7,5.7-18.3,13.5-20.3-2.9,169.8,148.3,199.5c57.2,11.2,66.7-7.6,70.9-8.6s34.5,6.4,56.1,5.7,65.8-4.3,95.6-2.6c46.4,2.8,77.3,10.1,127.5,7.7,41.9-2,62.7-2.6,87.8,1.7s29.8-15.1,22.2-30.8Z"></path><path class="cls-3" d="M156.8,168.1c6.8,15.5,4.1,26.7,4.1,26.7-5.9-50.4-64.2-49.5-61.8-18.8,5.6,36.7,50.4,54.3,75.9,52.7,20.5-1.3,22.8-14.3,18.7-30.7-4.1-16.4-22.6-31.2-36.9-29.8h0Z"></path><g><path class="cls-1" d="M275.6,95.6c6-4.7,13.2-11.5,16.5-14.7,1.2-1.2,1.5-3.4.8-5.4-2-5.2-5.7-9.3-8-11.6-1.2-1.1-2.7-1.3-3.8-.3-4.1,3.5-10.4,8.2-14.3,10.9-1.6,1.2-2.1,4-.9,6.2,2.1,4.1,3.6,8.7,4.7,12.2.8,2.8,3.3,4.1,5.1,2.7h0Z"></path><path class="cls-1" d="M236.3,114.4c8.8-2.9,20.4-7.9,25.6-10.3,1.8-.8,2.7-3.1,2.2-5.4-1.5-6.4-4.3-11.7-6.1-14.7-1-1.7-2.8-2.4-4.3-1.7-6.6,2.8-16.9,6-22.5,7.6-2,.6-3.2,3.1-2.7,5.7,1.3,6,2.3,11.3,2.9,15,.5,2.8,2.7,4.6,4.9,3.9h0Z"></path><path class="cls-1" d="M303.4,67.9c2.3-3.6,4.4-7.5,6.3-11.6.4-.9.5-2,.3-3.1-.9-4.4-2.7-8.6-4.3-11.6-1.3-2.4-3.6-2.8-4.8-.9-2.4,3.7-5.7,8.4-8,11.6-1.2,1.6-1,4.5.4,6.3,2.1,2.5,3.8,5.7,5.1,8.4s3.8,3,5,1h0Z"></path><path class="cls-1" d="M213.1,92c-8.6.8-21.6.8-27.9.8-2.1,0-4,1.7-4.3,4.1-1.2,8-1,15.7-.6,20.5.2,2.7,2.2,4.7,4.6,4.5,10.4-.8,25-3,32.3-4.2,2.5-.4,4.1-3.2,3.5-6.1-1.4-6.7-2.4-12.2-3-15.7-.4-2.4-2.3-4.1-4.4-3.9h0Z"></path><path class="cls-1" d="M116.2,78.6c-6.3-2.3-17.5-6.4-26.3-10.1-2.7-1.1-5.8.5-6.8,3.5-1.9,6.2-4.4,16.4-2.9,24.4.2,1.1.7,2.1,1.4,2.8,5.6,5.4,14.3,10.1,25.1,13.8,3,1,6.2-1.3,6.6-4.7.7-5.6,2.2-14.1,5.6-22.9,1.1-2.8-.2-5.8-2.7-6.8Z"></path><path class="cls-1" d="M129.7,118.6c6.9,1,22.4,3,34,3.5,2.7.1,4.9-2.4,4.9-5.4,0-4.4,0-11.4.7-20.5.2-2.6-1.4-4.9-3.7-5.3-6.4-1.1-19-3.4-28.3-5.7-2-.5-4.1.5-5.2,2.5-2.6,4.9-6.9,14.9-6.5,26.2,0,2.5,1.7,4.5,4,4.8h0Z"></path></g><path class="cls-1" d="M222.1,223.8c-2.9-1.2-5.7-3-8-5.1-5-4.9-8.4-11.4-10.1-18.1-1.1-4.4-1.4-9-1.5-13.8-.1-13,3.5-26.9,10.2-38.6,3.8-6.7,8.7-12.8,14.8-17.4,6.6-4.8,15.1-7.7,23-7.9,3.1,0,13.4-.6,15.8,1.1.6.3.3,1.3,0,2-.3.6-.7,3.3-.7,3.9-.6,2.4-3,16.7-3.6,19-.1.7-.4,1.8-1.2,2-1.4.5-4.4-1.5-5.7-2.2-3.6-2.2-7.7-3.5-12-3.5-2.4.1-4.9.8-7,2-3.3,1.8-6.1,4.7-8.1,7.8-2.5,4-3.8,8.5-4.5,13-1.2,6.3-1.2,13-.3,19.3.4,3,1.3,6,2.7,8.7,2.1,3.7,6.8,6.2,11.1,6.6,3.3.1,6.7.3,9.9-.2.3-2.4.8-16.5.8-18.9-2.2.4-9.7,2-11.6,1.2-.7-.4-.8-1.3-.7-2,.7-2.3.7-13.3.8-15.5,0-.5,0-1.1.3-1.5,1.2-1.9,6.1-2.1,8.2-2.3,5.8-.5,11.5-.8,17.4-.9,1,0,2.7.2,2.9,1,.4,1.3.7,7.5.9,8.8.8,12.6.9,25.3,1.4,37.9,0,3.5,0,7.2-1.8,10.2-1.1,2.1-3.7,3.5-6.1,4.1-12.4,3.4-26.1,3.4-37.5-.8Z"></path><path class="cls-1" d="M507.8,85.2c-3.3-4-13.8.7-18.4.7-7,1.4-14.8.2-21.2,3.1-8.3,28.8-13.2,59.1-17.1,88.9-3.1,7.3-7.9-24.2-9.5-26.2-1.9-6.4-12.3-38.5-15-44.3-4.3-3.3-15.9,3.5-21.4,4.8-.6.2-1.2,0-1.5-.5-6-9.4-16.8-12.9-27.4-11-10.7,1.3-30,9.2-36.4,17.9,3.1,27.8,4.6,59.2,5.4,87.4,0,1.5-2.1,1.9-2.5.4-8.5-30.2-15-59.8-24.2-89.2-.3-2-1.7-3.4-3.7-3-3.6.4-19.4,6.4-22.7,7.9s-1.9,1-2.2,2.4c-7.6,30.1-12.5,66.9-15.7,97.9-.4,4.1,4.2,4.9,7.3,5.1,4,.6,8.2,1,12.3,1.3,1.7.1,2.1-2.2,2.3-4.3.2-4.7,1.9-31.3,2.6-35.9,0-3.9,11-3.1,14.1-4.1.7,0,1.3.3,1.4,1,3.6,14.3,5.4,27.1,8.2,41.4.3,1.5,1.5,3.1,2.9,3.1,1.9,0,11.4-.8,13.5-1.2.3,0,8.5-.6,8.7-.6,5.5,0,11.9,1.8,17.1.1-.4-4.2-1.2-16-1.3-19.8,0-8.3-3.5-33.1,6.2-11.5,4.6,9.6,8.9,19.7,14,29.3.6,1.2,1.6,2.6,2.5,1.9,6.7-3.9,13.8-6.8,21-9.7,3.2-1.9-.9-5.3-2-7.3-7.2-9.5-13.8-19.4-20.2-29.2-.4-.6-.2-1.3.3-1.8,7.3-5.3,14-12.5,19.3-21.2,1.3-1.4,2.4-7.5,4.7-4.4,4.9,16.2,10.4,32.5,15.3,49.3,1.8,6.4,2.7,13.1,4.9,19.4s1.2,3.4,3.7,3.7c15,1.3,31.5,4.1,39.2,1.1,2.3-.7,1.8-8,2.7-10,8.8-44.8,17.9-89.4,32.9-132.8ZM311.2,168.4c-3,.8-11.8,2.9-11.8.2,0-6.4.7-30.3,5.5-31.7.8-.6,1.8-.1,2,.8,1.1,5.1,7.3,29.8,4.2,30.6ZM374.8,159.7c-2.5.8-9.8,5.2-11.1,2.1-.4-11.2-2.9-23.3-1.4-34.1,20-12.7,30.4,23.3,12.5,31.9Z"></path><path class="cls-1" d="M576.2,239.4c-2.4-.2-4.5-2.6-5-4.7-4.2-20.7-9.6-59.8-12.7-61.6s-24.9-.7-27.1,5.1-5.8,44-6.5,50.7c-.4,2.9-1.1,6.2-4.2,5.9-10-1.9-22-1.4-31.1-6.1-.5-.3-.9-.7-1.2-1.2-1.7-3.1-.6-7.3,0-10.5,1.5-8,11.4-55.7,13.1-63.7,4.6-22.1,11.1-43.9,18.6-65.9.7-1.9,1.6-2.6,4-3.3,7.8-2.3,33.3-12.4,43.3-10.2s1.6.8,2,1.7c19.1,49.2,27.7,100.2,46.5,151.8.7,2,3.9,7.2,2.5,8.8-2.3,2.7-12.9,2.2-16.8,2.3s-.1,0-.2,0c-3.9.3-21.9,1.2-25.3,1ZM556.8,147.8c-.9-8.2-5.6-30.6-7.6-40.4-.4-1.8-2.4-2.8-4-1.9s-2.2,1.2-3,1.6-1.2,1.1-1.4,1.9c-2.3,13.3-4.6,26.5-6.7,39.8-.3,1.7,1.1,3.3,2.9,3.2,6-.4,12.9-.1,17.7-1.4s2.1-1.6,2-3Z"></path><path class="cls-2" d="M459.1,31.9l-118.9,45.5c-1.2.5-1.8,1.9-1.2,3.1l1.9,3.6c.5.9,1.6,1.4,2.6,1.1l126.1-36.3c2.5-.7,3.6-3.7,2.1-5.8l-5.9-9c-1.5-2.2-4.2-3.1-6.7-2.1Z"></path><path class="cls-2" d="M425.2,1l-80.7,59.6c-1,.8-1.2,2.3-.4,3.4l2.5,3.4c.7,1,2.1,1.3,3.1.7l85.6-51.7c2.5-1.5,3.2-5,1.5-7.6l-4-6.2c-1.7-2.6-5.1-3.3-7.5-1.6Z"></path></g></g></svg> 